# xmcd
#
# Track frame offsets: 
#        150
#        18647
#        43863
#        73489
#        97661
#        122757
#        153403
#        174010
#        200104
#
# Disc length: 2970 seconds
#
# Revision: 2
# Processed by: cddbd v1.5.2PL0 Copyright (c) Steve Scherf et al.
# Submitted via: ExactAudioCopy v0.99pb5
#
DISCID=780b9809
DTITLE=Enrico Pieranunzi, Marc Johnson, Joey Baron - Dream Dance
DYEAR=2009
DGENRE=CamJazz
TTITLE0=End Of Diversions
TTITLE1=No-Nonsense
TTITLE2=As Never Before
TTITLE3=Castle Of Solitude
TTITLE4=Peu de Chose
TTITLE5=Nippono Ya-Oke
TTITLE6=Pseudoscope
TTITLE7=Dream Dance
TTITLE8=Five Plus Five
EXTD=YEAR: 2009
EXTT0=
EXTT1=
EXTT2=
EXTT3=
EXTT4=
EXTT5=
EXTT6=
EXTT7=
EXTT8=
PLAYORDER=
